<mxfile host="app.diagrams.net" agent="Mozilla/5.0 (Macintosh; Intel Mac OS X 10_15_7) AppleWebKit/537.36 (KHTML, like Gecko) Chrome/135.0.0.0 Safari/537.36" version="27.0.5">
  <diagram name="第 1 页" id="nKXIzWZcWv5SAYt_7bE2">
    <mxGraphModel dx="644" dy="393" grid="1" gridSize="10" guides="1" tooltips="1" connect="1" arrows="1" fold="1" page="1" pageScale="1" pageWidth="827" pageHeight="1169" math="0" shadow="0">
      <root>
        <mxCell id="0" />
        <mxCell id="1" parent="0" />
        <mxCell id="UcrgjC-dRYHWEmtG6xzf-3" value="" style="rounded=1;whiteSpace=wrap;html=1;fillColor=none;" vertex="1" parent="1">
          <mxGeometry x="270" y="120" width="320" height="170" as="geometry" />
        </mxCell>
        <mxCell id="UcrgjC-dRYHWEmtG6xzf-5" value="&lt;b&gt;Colorized Multivariate Alignment&lt;/b&gt;" style="text;html=1;align=center;verticalAlign=middle;whiteSpace=wrap;rounded=0;" vertex="1" parent="1">
          <mxGeometry x="320" y="120" width="220" height="30" as="geometry" />
        </mxCell>
        <mxCell id="UcrgjC-dRYHWEmtG6xzf-6" value="" style="rounded=1;whiteSpace=wrap;html=1;fillColor=none;" vertex="1" parent="1">
          <mxGeometry x="270" y="370" width="320" height="170" as="geometry" />
        </mxCell>
        <mxCell id="UcrgjC-dRYHWEmtG6xzf-8" value="&lt;b&gt;Quantile Estimation Heads&lt;/b&gt;" style="text;html=1;align=center;verticalAlign=middle;whiteSpace=wrap;rounded=0;" vertex="1" parent="1">
          <mxGeometry x="320" y="370" width="220" height="30" as="geometry" />
        </mxCell>
        <mxCell id="UcrgjC-dRYHWEmtG6xzf-9" value="Variate 1" style="text;html=1;align=center;verticalAlign=middle;whiteSpace=wrap;rounded=0;" vertex="1" parent="1">
          <mxGeometry x="60" y="140" width="60" height="30" as="geometry" />
        </mxCell>
        <mxCell id="UcrgjC-dRYHWEmtG6xzf-10" value="Variate 2" style="text;html=1;align=center;verticalAlign=middle;whiteSpace=wrap;rounded=0;" vertex="1" parent="1">
          <mxGeometry x="60" y="180" width="60" height="30" as="geometry" />
        </mxCell>
      </root>
    </mxGraphModel>
  </diagram>
</mxfile>
